<svg width="23" height="27" viewBox="0 0 23 27" fill="none" xmlns="http://www.w3.org/2000/svg">
<path d="M21.9545 6.63507H17.5114V6.10933C17.5114 2.7709 14.8193 0.0633545 11.5 0.0633545C8.18068 0.0633545 5.48864 2.7709 5.48864 6.10933V6.63507H1.04545C0.467187 6.63507 0 7.10495 0 7.68654V25.2987C0 25.8803 0.467187 26.3502 1.04545 26.3502H21.9545C22.5328 26.3502 23 25.8803 23 25.2987V7.68654C23 7.10495 22.5328 6.63507 21.9545 6.63507ZM7.84091 6.10933C7.84091 4.07539 9.4777 2.42917 11.5 2.42917C13.5223 2.42917 15.1591 4.07539 15.1591 6.10933V6.63507H7.84091V6.10933ZM2.35227 23.9844V9.00089H5.48864V11.8924C5.48864 12.037 5.60625 12.1553 5.75 12.1553H7.57955C7.7233 12.1553 7.84091 12.037 7.84091 11.8924V9.00089H15.1591V11.8924C15.1591 12.037 15.2767 12.1553 15.4205 12.1553H17.25C17.3937 12.1553 17.5114 12.037 17.5114 11.8924V9.00089H20.6477V23.9844H2.35227Z" fill="#373435"/>
<path d="M21.9545 6.63507H17.5114V6.10933C17.5114 2.7709 14.8193 0.0633545 11.5 0.0633545C8.18068 0.0633545 5.48864 2.7709 5.48864 6.10933V6.63507H1.04545C0.467187 6.63507 0 7.10495 0 7.68654V25.2987C0 25.8803 0.467187 26.3502 1.04545 26.3502H21.9545C22.5328 26.3502 23 25.8803 23 25.2987V7.68654C23 7.10495 22.5328 6.63507 21.9545 6.63507ZM7.84091 6.10933C7.84091 4.07539 9.4777 2.42917 11.5 2.42917C13.5223 2.42917 15.1591 4.07539 15.1591 6.10933V6.63507H7.84091V6.10933ZM2.35227 23.9844V9.00089H5.48864V11.8924C5.48864 12.037 5.60625 12.1553 5.75 12.1553H7.57955C7.7233 12.1553 7.84091 12.037 7.84091 11.8924V9.00089H15.1591V11.8924C15.1591 12.037 15.2767 12.1553 15.4205 12.1553H17.25C17.3937 12.1553 17.5114 12.037 17.5114 11.8924V9.00089H20.6477V23.9844H2.35227Z" stroke="black"/>
</svg>
