<svg width="40" height="40" viewBox="0 0 40 40" fill="none" xmlns="http://www.w3.org/2000/svg">
<circle cx="20" cy="20" r="20" fill="#333333"/>
<path d="M29.3767 13.8824H25.513V13.4118C25.513 10.4235 23.1721 8 20.2858 8C17.3994 8 15.0585 10.4235 15.0585 13.4118V13.8824H11.1949C10.692 13.8824 10.2858 14.3029 10.2858 14.8235V30.5882C10.2858 31.1088 10.692 31.5294 11.1949 31.5294H29.3767C29.8795 31.5294 30.2858 31.1088 30.2858 30.5882V14.8235C30.2858 14.3029 29.8795 13.8824 29.3767 13.8824ZM17.1039 13.4118C17.1039 11.5912 18.5272 10.1176 20.2858 10.1176C22.0443 10.1176 23.4676 11.5912 23.4676 13.4118V13.8824H17.1039V13.4118ZM12.3312 29.4118V16H15.0585V18.5882C15.0585 18.7176 15.1608 18.8235 15.2858 18.8235H16.8767C17.0017 18.8235 17.1039 18.7176 17.1039 18.5882V16H23.4676V18.5882C23.4676 18.7176 23.5699 18.8235 23.6949 18.8235H25.2858C25.4108 18.8235 25.513 18.7176 25.513 18.5882V16H28.2403V29.4118H12.3312Z" fill="#FFCC00"/>
<path d="M29.3767 13.8824H25.513V13.4118C25.513 10.4235 23.1721 8 20.2858 8C17.3994 8 15.0585 10.4235 15.0585 13.4118V13.8824H11.1949C10.692 13.8824 10.2858 14.3029 10.2858 14.8235V30.5882C10.2858 31.1088 10.692 31.5294 11.1949 31.5294H29.3767C29.8795 31.5294 30.2858 31.1088 30.2858 30.5882V14.8235C30.2858 14.3029 29.8795 13.8824 29.3767 13.8824ZM17.1039 13.4118C17.1039 11.5912 18.5272 10.1176 20.2858 10.1176C22.0443 10.1176 23.4676 11.5912 23.4676 13.4118V13.8824H17.1039V13.4118ZM12.3312 29.4118V16H15.0585V18.5882C15.0585 18.7176 15.1608 18.8235 15.2858 18.8235H16.8767C17.0017 18.8235 17.1039 18.7176 17.1039 18.5882V16H23.4676V18.5882C23.4676 18.7176 23.5699 18.8235 23.6949 18.8235H25.2858C25.4108 18.8235 25.513 18.7176 25.513 18.5882V16H28.2403V29.4118H12.3312Z" stroke="#FFCC00"/>
</svg>
