<svg width="39" height="39" viewBox="0 0 39 39" fill="none" xmlns="http://www.w3.org/2000/svg">
<path d="M30.875 22.0773V16.25C30.875 11.0224 27.3244 6.61862 22.5144 5.29425C22.0383 4.095 20.8748 3.25 19.5 3.25C18.1253 3.25 16.9618 4.095 16.4856 5.29425C11.6756 6.62025 8.125 11.0224 8.125 16.25V22.0773L5.35113 24.8511C5.19993 25.0018 5.08003 25.1808 4.99831 25.378C4.9166 25.5752 4.87469 25.7866 4.875 26V29.25C4.875 29.681 5.04621 30.0943 5.35095 30.399C5.6557 30.7038 6.06902 30.875 6.5 30.875H32.5C32.931 30.875 33.3443 30.7038 33.6491 30.399C33.9538 30.0943 34.125 29.681 34.125 29.25V26C34.1253 25.7866 34.0834 25.5752 34.0017 25.378C33.92 25.1808 33.8001 25.0018 33.6489 24.8511L30.875 22.0773ZM30.875 27.625H8.125V26.6727L10.8989 23.8989C11.0501 23.7482 11.17 23.5692 11.2517 23.372C11.3334 23.1748 11.3753 22.9634 11.375 22.75V16.25C11.375 11.7699 15.0199 8.125 19.5 8.125C23.9801 8.125 27.625 11.7699 27.625 16.25V22.75C27.625 23.1823 27.7956 23.595 28.1011 23.8989L30.875 26.6727V27.625ZM19.5 35.75C20.5064 35.7513 21.4881 35.439 22.3088 34.8565C23.1295 34.2741 23.7483 33.4504 24.0793 32.5H14.9208C15.2517 33.4504 15.8705 34.2741 16.6912 34.8565C17.5119 35.439 18.4936 35.7513 19.5 35.75V35.75Z" fill="#333333"/>
</svg>
