<svg width="40" height="40" viewBox="0 0 40 40" fill="none" xmlns="http://www.w3.org/2000/svg">
<g clip-path="url(#clip0_714_2)">
<path d="M33.7777 19.5556C31.7777 17.4445 29.111 16 26.3332 15.4444C25.111 15.1111 23.8888 14.8889 22.6666 14.7778C25.7777 11.1111 25.2221 5.55556 21.5554 2.44445C17.8888 -0.666662 12.3332 -0.111107 9.22211 3.55556C6.111 7.22223 6.66655 12.7778 10.3332 15.8889C10.9999 16.4444 11.6666 16.8889 12.3332 17.1111V19.5556L10.5554 17.8889C8.99989 16.3333 6.44433 16.3333 4.77766 17.8889C3.22211 19.4445 3.111 21.8889 4.66655 23.4445L9.77766 29.4445C9.99989 31 10.5554 32.4445 11.3332 33.7778C11.8888 34.7778 12.6666 35.7778 13.4443 36.5556V38.6667C13.4443 39.3333 13.8888 39.7778 14.5554 39.7778H29.6666C30.2221 39.7778 30.7777 39.2222 30.7777 38.6667V35.7778C32.8888 33.2222 33.9999 30 33.9999 26.7778V20.3333C34.111 19.8889 33.9999 19.6667 33.7777 19.5556V19.5556ZM9.33322 9.11112C9.33322 5.44445 12.3332 2.55556 15.9999 2.66667C19.6666 2.66667 22.5554 5.66667 22.4443 9.33334C22.4443 11.3333 21.5554 13.1111 19.9999 14.3333V8.77778C19.9431 7.81486 19.5202 6.91012 18.8178 6.24902C18.1154 5.58792 17.1867 5.22056 16.2221 5.22223C14.2221 5.11112 12.4443 6.77778 12.4443 8.77778V14.5556C10.5554 13.4444 9.44433 11.3333 9.33322 9.11112ZM31.8888 26.6667C31.9999 29.5556 30.9999 32.3333 29.111 34.5556C28.8888 34.7778 28.6666 35 28.6666 35.3333V37.6667H15.7777V36.1111C15.7777 35.7778 15.5554 35.4445 15.3332 35.2222C14.5554 34.5556 13.8888 33.7778 13.3332 32.7778C12.6666 31.6667 12.2221 30.3333 11.9999 29C11.9999 28.7778 11.8888 28.5556 11.7777 28.3333L6.44433 22C6.111 21.6667 5.88878 21.2222 5.88878 20.6667C5.88878 20.2222 6.111 19.6667 6.44433 19.3333C7.22211 18.6667 8.33322 18.6667 9.111 19.3333L12.3332 22.5556V25.8889L14.4443 24.7778V8.77778C14.5554 8 15.2221 7.33334 16.111 7.44445C16.8888 7.44445 17.6666 8 17.6666 8.77778V21.5556L19.8888 22V16.8889C19.9999 16.7778 20.111 16.7778 20.2221 16.6667C20.9999 16.6667 21.7777 16.7778 22.5554 16.8889V22.5556L24.3332 22.8889V17.1111L25.6666 17.4444C26.2221 17.5556 26.7777 17.7778 27.3332 18V23.5556L29.111 23.8889V18.7778C30.111 19.2222 30.9999 19.8889 31.7777 20.6667L31.8888 26.6667V26.6667Z" fill="#181818"/>
</g>
<defs>
<clipPath id="clip0_714_2">
<rect width="40" height="40" fill="white"/>
</clipPath>
</defs>
</svg>
