<svg width="40" height="40" viewBox="0 0 40 40" fill="none" xmlns="http://www.w3.org/2000/svg">
<path fill-rule="evenodd" clip-rule="evenodd" d="M35.4 20.7333C35.4 13.1733 29.5067 5.66667 20.3333 5.66667C12.9253 5.66667 9.26133 11.1493 7.70133 14.0667H12.3333C12.687 14.0667 13.0261 14.2071 13.2761 14.4572C13.5262 14.7072 13.6667 15.0464 13.6667 15.4C13.6667 15.7536 13.5262 16.0928 13.2761 16.3428C13.0261 16.5929 12.687 16.7333 12.3333 16.7333H4.33333C3.97971 16.7333 3.64057 16.5929 3.39052 16.3428C3.14048 16.0928 3 15.7536 3 15.4V7.4C3 7.04638 3.14048 6.70724 3.39052 6.45719C3.64057 6.20714 3.97971 6.06667 4.33333 6.06667C4.68696 6.06667 5.02609 6.20714 5.27614 6.45719C5.52619 6.70724 5.66667 7.04638 5.66667 7.4V12.2347C7.54667 8.92267 11.8907 3 20.3333 3C31.168 3 38.0667 11.8933 38.0667 20.7333C38.0667 29.5733 31.168 38.4667 20.3333 38.4667C15.1493 38.4667 10.8347 36.4133 7.76 33.288C6.13095 31.6251 4.8388 29.6628 3.95467 27.5093C3.88813 27.3474 3.85415 27.1739 3.85466 26.9988C3.85516 26.8237 3.89016 26.6504 3.95763 26.4888C4.02511 26.3273 4.12375 26.1806 4.24792 26.0571C4.3721 25.9337 4.51937 25.8359 4.68133 25.7693C4.8433 25.7028 5.01678 25.6688 5.19188 25.6693C5.36697 25.6698 5.54026 25.7048 5.70183 25.7723C5.86341 25.8398 6.01011 25.9384 6.13356 26.0626C6.25701 26.1868 6.3548 26.334 6.42133 26.496C7.168 28.312 8.26667 30 9.664 31.4187C12.256 34.0587 15.8933 35.8 20.3333 35.8C29.5067 35.8 35.4 28.2933 35.4 20.7333V20.7333ZM20.3333 11.4C20.687 11.4 21.0261 11.5405 21.2761 11.7905C21.5262 12.0406 21.6667 12.3797 21.6667 12.7333V20.1813L26.6107 25.1227C26.861 25.373 27.0017 25.7126 27.0017 26.0667C27.0017 26.4207 26.861 26.7603 26.6107 27.0107C26.3603 27.261 26.0207 27.4017 25.6667 27.4017C25.3126 27.4017 24.973 27.261 24.7227 27.0107L19.3893 21.6773C19.2656 21.5533 19.1675 21.4061 19.1007 21.2441C19.0339 21.0821 18.9997 20.9085 19 20.7333V12.7333C19 12.3797 19.1405 12.0406 19.3905 11.7905C19.6406 11.5405 19.9797 11.4 20.3333 11.4V11.4Z" fill="#333333"/>
</svg>
