<svg width="40" height="40" viewBox="0 0 40 40" fill="none" xmlns="http://www.w3.org/2000/svg">
<path d="M20 26.6667C23.6767 26.6667 26.6667 23.6767 26.6667 20C26.6667 16.3234 23.6767 13.3334 20 13.3334C16.3233 13.3334 13.3333 16.3234 13.3333 20C13.3333 23.6767 16.3233 26.6667 20 26.6667ZM20 16.6667C21.8067 16.6667 23.3333 18.1934 23.3333 20C23.3333 21.8067 21.8067 23.3334 20 23.3334C18.1933 23.3334 16.6667 21.8067 16.6667 20C16.6667 18.1934 18.1933 16.6667 20 16.6667Z" fill="#333333"/>
<path d="M4.74167 26.8934L6.40834 29.7767C7.29334 31.305 9.42334 31.8784 10.9583 30.9934L11.84 30.4834C12.8042 31.2419 13.8674 31.8654 15 32.3367V33.3334C15 35.1717 16.495 36.6667 18.3333 36.6667H21.6667C23.505 36.6667 25 35.1717 25 33.3334V32.3367C26.1323 31.8653 27.1953 31.2424 28.16 30.485L29.0417 30.995C30.58 31.8784 32.705 31.3084 33.5933 29.7767L35.2583 26.895C35.7 26.1295 35.8198 25.22 35.5914 24.3663C35.3629 23.5125 34.805 22.7843 34.04 22.3417L33.1983 21.855C33.3773 20.626 33.3773 19.3774 33.1983 18.1484L34.04 17.6617C34.8046 17.2188 35.3623 16.4906 35.5907 15.637C35.8191 14.7833 35.6996 13.874 35.2583 13.1084L33.5933 10.2267C32.7083 8.69337 30.58 8.11837 29.0417 9.00671L28.16 9.51671C27.1958 8.75822 26.1327 8.1347 25 7.66337V6.66671C25 4.82837 23.505 3.33337 21.6667 3.33337H18.3333C16.495 3.33337 15 4.82837 15 6.66671V7.66337C13.8677 8.13478 12.8047 8.75768 11.84 9.51504L10.9583 9.00504C9.41834 8.12004 7.29167 8.69337 6.40667 10.225L4.74167 13.1067C4.29997 13.8722 4.18019 14.7817 4.40863 15.6355C4.63707 16.4892 5.19505 17.2174 5.96 17.66L6.80167 18.1467C6.62206 19.3752 6.62206 20.6232 6.80167 21.8517L5.96 22.3384C5.19527 22.7816 4.63755 23.5101 4.40916 24.364C4.18077 25.2179 4.30034 26.1275 4.74167 26.8934V26.8934ZM10.285 22.2967C10.0968 21.5456 10.0011 20.7743 10 20C10 19.23 10.0967 18.4567 10.2833 17.7034C10.3712 17.3523 10.3423 16.9821 10.201 16.6488C10.0596 16.3156 9.81355 16.0375 9.5 15.8567L7.62834 14.7734L9.29167 11.8917L11.2 12.995C11.5112 13.1751 11.8724 13.2494 12.2295 13.2067C12.5865 13.1641 12.92 13.0067 13.18 12.7584C14.3075 11.686 15.6672 10.8881 17.1533 10.4267C17.4947 10.3225 17.7936 10.1114 18.006 9.82459C18.2185 9.53775 18.3332 9.1903 18.3333 8.83337V6.66671H21.6667V8.83337C21.6668 9.1903 21.7816 9.53775 21.994 9.82459C22.2064 10.1114 22.5053 10.3225 22.8467 10.4267C24.3325 10.8887 25.692 11.6865 26.82 12.7584C27.0803 13.0062 27.4138 13.1632 27.7707 13.2059C28.1275 13.2486 28.4886 13.1746 28.8 12.995L30.7067 11.8934L32.3733 14.775L30.5 15.8567C30.1866 16.0377 29.9407 16.3158 29.7994 16.649C29.6581 16.9822 29.6291 17.3523 29.7167 17.7034C29.9033 18.4567 30 19.23 30 20C30 20.7684 29.9033 21.5417 29.715 22.2967C29.6275 22.648 29.6568 23.0182 29.7985 23.3514C29.9401 23.6846 30.1863 23.9626 30.5 24.1434L32.3717 25.225L30.7083 28.1067L28.8 27.005C28.4889 26.8247 28.1276 26.7503 27.7705 26.7929C27.4134 26.8356 27.0799 26.9931 26.82 27.2417C25.6925 28.3141 24.3328 29.112 22.8467 29.5734C22.5053 29.6776 22.2064 29.8887 21.994 30.1755C21.7816 30.4623 21.6668 30.8098 21.6667 31.1667L21.67 33.3334H18.3333V31.1667C18.3332 30.8098 18.2185 30.4623 18.006 30.1755C17.7936 29.8887 17.4947 29.6776 17.1533 29.5734C15.6675 29.1114 14.308 28.3135 13.18 27.2417C12.9205 26.9924 12.5868 26.8346 12.2294 26.7921C11.8721 26.7497 11.5106 26.8251 11.2 27.0067L9.29334 28.11L7.62667 25.2284L9.5 24.1434C9.81366 23.9626 10.0599 23.6846 10.2016 23.3514C10.3432 23.0182 10.3725 22.648 10.285 22.2967V22.2967Z" fill="#333333"/>
</svg>
