<svg width="23" height="24" viewBox="0 0 23 24" fill="none" xmlns="http://www.w3.org/2000/svg">
<path d="M13.6583 23.9128H9.34361C9.07326 23.9128 8.81103 23.8199 8.60039 23.6495C8.38975 23.479 8.24336 23.2413 8.18551 22.9757L7.70307 20.7296C7.05949 20.446 6.44924 20.0913 5.88355 19.6722L3.70604 20.3696C3.4483 20.4522 3.1702 20.4438 2.91792 20.3455C2.66565 20.2473 2.45437 20.0652 2.31918 19.8295L0.157085 16.073C0.0233117 15.8371 -0.0269034 15.5625 0.0146551 15.2942C0.0562135 15.0258 0.187085 14.7796 0.385859 14.5958L2.07499 13.046C1.99818 12.3439 1.99818 11.6355 2.07499 10.9335L0.385859 9.38719C0.186803 9.20333 0.055754 8.95691 0.0141888 8.68832C-0.0273765 8.41973 0.0230082 8.1449 0.157085 7.90889L2.31444 4.14993C2.44963 3.91426 2.6609 3.73218 2.91318 3.63394C3.16546 3.5357 3.44356 3.52721 3.7013 3.60988L5.87881 4.3073C6.16803 4.09271 6.46911 3.89242 6.77968 3.71121C7.07957 3.54192 7.38776 3.38813 7.70307 3.25103L8.1867 1.00734C8.24427 0.741719 8.39038 0.503866 8.6008 0.333219C8.81121 0.162571 9.0733 0.0693779 9.34361 0.0690918H13.6583C13.9286 0.0693779 14.1907 0.162571 14.4011 0.333219C14.6115 0.503866 14.7576 0.741719 14.8152 1.00734L15.3036 3.25222C15.9468 3.53584 16.5567 3.89051 17.1219 4.30969L19.3006 3.61226C19.5582 3.5299 19.836 3.53855 20.088 3.63677C20.3401 3.735 20.5511 3.9169 20.6863 4.15232L22.8436 7.91127C23.1186 8.39649 23.0238 9.01046 22.6149 9.38839L20.9257 10.9382C21.0025 11.6403 21.0025 12.3487 20.9257 13.0508L22.6149 14.6006C23.0238 14.9797 23.1186 15.5925 22.8436 16.0777L20.6863 19.8367C20.5511 20.0724 20.3398 20.2544 20.0875 20.3527C19.8353 20.4509 19.5572 20.4594 19.2994 20.3767L17.1219 19.6793C16.5567 20.0982 15.9468 20.4525 15.3036 20.7356L14.8152 22.9757C14.7574 23.2411 14.6112 23.4787 14.4008 23.6491C14.1904 23.8195 13.9284 23.9125 13.6583 23.9128ZM6.30909 17.0327L7.28108 17.748C7.50037 17.9101 7.72796 18.0591 7.96503 18.195C8.18788 18.325 8.41547 18.4418 8.65136 18.5479L9.7573 19.0355L10.299 21.5284H12.7053L13.247 19.0343L14.3529 18.5467C14.8354 18.3321 15.2941 18.0663 15.7196 17.7527L16.6916 17.0374L19.1121 17.8124L20.3153 15.7165L18.4389 13.9962L18.5716 12.7897C18.6309 12.2615 18.6309 11.7286 18.5716 11.2017L18.4389 9.99521L20.3165 8.27131L19.1121 6.17426L16.6928 6.94918L15.7196 6.23387C15.2939 5.91877 14.8357 5.65058 14.3529 5.43392L13.247 4.94631L12.7053 2.45346H10.299L9.75374 4.9475L8.65136 5.43392C8.16795 5.64685 7.70956 5.91315 7.28464 6.22791L6.31146 6.94322L3.89333 6.1683L2.68782 8.27131L4.56424 9.98925L4.43148 11.1969C4.37222 11.7251 4.37222 12.258 4.43148 12.7849L4.56424 13.9914L2.68782 15.7117L3.89096 17.8076L6.30909 17.0327ZM11.4962 16.7597C10.2387 16.7597 9.03271 16.2572 8.14352 15.3629C7.25433 14.4686 6.75478 13.2557 6.75478 11.9909C6.75478 10.7262 7.25433 9.51323 8.14352 8.61892C9.03271 7.72461 10.2387 7.22219 11.4962 7.22219C12.7537 7.22219 13.9597 7.72461 14.8489 8.61892C15.7381 9.51323 16.2376 10.7262 16.2376 11.9909C16.2376 13.2557 15.7381 14.4686 14.8489 15.3629C13.9597 16.2572 12.7537 16.7597 11.4962 16.7597ZM11.4962 9.60656C11.032 9.60703 10.5781 9.74458 10.1909 10.0021C9.80366 10.2597 9.50015 10.6259 9.318 11.0554C9.13585 11.4849 9.08309 11.9587 9.16625 12.418C9.2494 12.8774 9.46483 13.3021 9.78579 13.6394C10.1068 13.9768 10.5191 14.2119 10.9718 14.3157C11.4244 14.4194 11.8974 14.3872 12.332 14.2231C12.7666 14.059 13.1437 13.7701 13.4166 13.3924C13.6894 13.0147 13.846 12.5647 13.8669 12.0982V12.5751V11.9909C13.8669 11.3585 13.6172 10.7521 13.1726 10.3049C12.728 9.85777 12.125 9.60656 11.4962 9.60656Z" fill="#373435"/>
</svg>
