<svg width="35" height="40" viewBox="0 0 35 40" fill="none" xmlns="http://www.w3.org/2000/svg">
<path d="M17.5 20C14.75 20 12.5 22.25 12.5 25C12.5 27.75 14.75 30 17.5 30C20.25 30 22.5 27.75 22.5 25C22.5 22.25 20.25 20 17.5 20ZM33.8359 10.0859L27.2813 3.53125C26.6484 2.89531 25.6875 2.5 24.6953 2.5H5C2.23828 2.5 0 4.73828 0 7.5V32.5C0 35.2617 2.23828 37.5 5 37.5H30C32.7617 37.5 35 35.2617 35 32.5V12.8047C35 11.8125 34.6016 10.8516 33.8359 10.0859V10.0859ZM10 6.25H21.25V12.5H10V6.25ZM31.25 32.5C31.25 33.1903 30.6903 33.75 30 33.75H5C4.30969 33.75 3.75 33.1903 3.75 32.5V7.5C3.75 6.80953 4.30969 6.25 5 6.25H6.25V14.375C6.25 15.4102 7.08984 16.25 8.125 16.25H23.125C24.1641 16.25 25 15.4141 25 14.375V6.55312L31.1133 12.6664C31.2031 12.75 31.25 12.875 31.25 12.9922V32.5Z" fill="white"/>
</svg>
