<svg width="25" height="25" viewBox="0 0 25 25" fill="none" xmlns="http://www.w3.org/2000/svg">
<path d="M6.53258 4.655C6.48911 4.68795 6.44589 4.72129 6.40291 4.755H6.56629C6.61048 4.72127 6.65492 4.68793 6.69961 4.655H6.53258ZM5.18182 3.58855V3.71825C5.21501 3.69063 5.24835 3.66322 5.28182 3.63601V3.50749C5.24835 3.53431 5.21502 3.56134 5.18182 3.58855ZM1.02352 11.1967L1.12232 11.2121L1.02366 11.1958L1.02352 11.1967ZM2.77377 11.4413H2.67377L2.68923 11.4434L2.77286 11.4548C2.77317 11.4525 2.77348 11.4502 2.77377 11.4479V11.4434V11.4413ZM13.1227 6.06935C13.1227 5.83386 13.0297 5.6079 12.864 5.44121C12.6982 5.2745 12.4733 5.18074 12.2386 5.18074C12.004 5.18074 11.779 5.2745 11.6133 5.44121C11.4476 5.6079 11.3545 5.83386 11.3545 6.06935V12.9039C11.3545 13.3939 11.75 13.7925 12.2386 13.7925H15.375C15.6097 13.7925 15.8346 13.6988 16.0003 13.5321C16.1661 13.3654 16.2591 13.1394 16.2591 12.9039C16.2591 12.6684 16.1661 12.4425 16.0003 12.2758C15.8346 12.1091 15.6097 12.0153 15.375 12.0153H13.1227V6.06935Z" fill="#373435" stroke="#373435" stroke-width="0.2"/>
</svg>
