<svg width="200" height="200" viewBox="0 0 200 200" fill="none" xmlns="http://www.w3.org/2000/svg">
<g clip-path="url(#clip0_712_2)">
<path d="M59.375 46.875C49.0195 46.875 40.625 55.2695 40.625 65.625C40.625 75.9805 49.0195 84.375 59.375 84.375C69.7305 84.375 78.125 75.9805 78.125 65.625C78.125 55.2695 69.7266 46.875 59.375 46.875ZM174.648 12.5H24.6484C11.1914 12.5 -0.00390625 23.6914 -0.00390625 37.5V162.5C-0.00390625 176.309 11.1875 187.5 24.6445 187.5H174.645C188.453 187.5 199.645 176.309 199.645 162.5V37.5C199.648 23.6914 188.789 12.5 174.648 12.5ZM180.898 159.883L127.461 87.2656C126.484 85.4687 124.258 84.375 121.875 84.375C119.487 84.375 117.258 85.4562 115.934 87.2574L74.293 143.546L59.8047 125.539C58.4605 123.867 56.3148 122.879 54.0352 122.879C51.7531 122.879 49.6094 123.867 48.2617 125.539L18.7617 162.183C18.7617 162.171 18.7617 162.195 18.7617 162.183L18.7461 37.5C18.7461 34.0539 21.55 31.25 24.9961 31.25H174.996C178.442 31.25 181.246 34.0539 181.246 37.5V159.883H180.898Z" fill="#DDDDDD"/>
</g>
<defs>
<clipPath id="clip0_712_2">
<rect width="200" height="200" fill="white"/>
</clipPath>
</defs>
</svg>
