<svg width="23" height="31" viewBox="0 0 23 31" fill="none" xmlns="http://www.w3.org/2000/svg">
<path d="M23 27.0397V8.72654L14.375 0.0518799H3.83333C2.81667 0.0518799 1.84165 0.458073 1.12276 1.1811C0.403868 1.90413 0 2.88477 0 3.90729V27.0397C0 28.0622 0.403868 29.0429 1.12276 29.7659C1.84165 30.4889 2.81667 30.8951 3.83333 30.8951H19.1667C20.1833 30.8951 21.1584 30.4889 21.8772 29.7659C22.5961 29.0429 23 28.0622 23 27.0397ZM14.375 5.83499C14.375 6.60188 14.6779 7.33736 15.2171 7.87963C15.7562 8.4219 16.4875 8.72654 17.25 8.72654H21.0833V27.0397C21.0833 27.551 20.8814 28.0413 20.522 28.4028C20.1625 28.7643 19.675 28.9674 19.1667 28.9674H3.83333C3.325 28.9674 2.83749 28.7643 2.47805 28.4028C2.1186 28.0413 1.91667 27.551 1.91667 27.0397V3.90729C1.91667 3.39603 2.1186 2.90571 2.47805 2.54419C2.83749 2.18268 3.325 1.97958 3.83333 1.97958H14.375V5.83499Z" fill="#373435"/>
<path d="M23 27.0397V8.72654L14.375 0.0518799H3.83333C2.81667 0.0518799 1.84165 0.458073 1.12276 1.1811C0.403868 1.90413 0 2.88477 0 3.90729V27.0397C0 28.0622 0.403868 29.0429 1.12276 29.7659C1.84165 30.4889 2.81667 30.8951 3.83333 30.8951H19.1667C20.1833 30.8951 21.1584 30.4889 21.8772 29.7659C22.5961 29.0429 23 28.0622 23 27.0397ZM14.375 5.83499C14.375 6.60188 14.6779 7.33736 15.2171 7.87963C15.7562 8.4219 16.4875 8.72654 17.25 8.72654H21.0833V27.0397C21.0833 27.551 20.8814 28.0413 20.522 28.4028C20.1625 28.7643 19.675 28.9674 19.1667 28.9674H3.83333C3.325 28.9674 2.83749 28.7643 2.47805 28.4028C2.1186 28.0413 1.91667 27.551 1.91667 27.0397V3.90729C1.91667 3.39603 2.1186 2.90571 2.47805 2.54419C2.83749 2.18268 3.325 1.97958 3.83333 1.97958H14.375V5.83499Z" stroke="black"/>
</svg>
