<svg width="40" height="40" viewBox="0 0 40 40" fill="none" xmlns="http://www.w3.org/2000/svg">
<path d="M27.135 19.635C27.3697 19.4003 27.5016 19.0819 27.5016 18.75C27.5016 18.4181 27.3697 18.0997 27.135 17.865C26.9003 17.6303 26.5819 17.4984 26.25 17.4984C25.9181 17.4984 25.5997 17.6303 25.365 17.865L18.75 24.4825L15.885 21.615C15.6503 21.3803 15.3319 21.2484 15 21.2484C14.6681 21.2484 14.3497 21.3803 14.115 21.615C13.8803 21.8497 13.7484 22.1681 13.7484 22.5C13.7484 22.8319 13.8803 23.1503 14.115 23.385L17.865 27.135C17.9811 27.2514 18.119 27.3438 18.2709 27.4068C18.4228 27.4698 18.5856 27.5022 18.75 27.5022C18.9144 27.5022 19.0772 27.4698 19.2291 27.4068C19.3809 27.3438 19.5189 27.2514 19.635 27.135L27.135 19.635V19.635Z" fill="#333333"/>
<path d="M35 35V11.25L23.75 0H10C8.67392 0 7.40215 0.526784 6.46447 1.46447C5.52678 2.40215 5 3.67392 5 5V35C5 36.3261 5.52678 37.5979 6.46447 38.5355C7.40215 39.4732 8.67392 40 10 40H30C31.3261 40 32.5979 39.4732 33.5355 38.5355C34.4732 37.5979 35 36.3261 35 35ZM23.75 7.5C23.75 8.49456 24.1451 9.44839 24.8483 10.1517C25.5516 10.8549 26.5054 11.25 27.5 11.25H32.5V35C32.5 35.663 32.2366 36.2989 31.7678 36.7678C31.2989 37.2366 30.663 37.5 30 37.5H10C9.33696 37.5 8.70107 37.2366 8.23223 36.7678C7.76339 36.2989 7.5 35.663 7.5 35V5C7.5 4.33696 7.76339 3.70107 8.23223 3.23223C8.70107 2.76339 9.33696 2.5 10 2.5H23.75V7.5Z" fill="#333333"/>
</svg>
