<svg width="25" height="27" viewBox="0 0 25 27" fill="none" xmlns="http://www.w3.org/2000/svg">
<path d="M17.6111 2.75575H21.4444C22.1222 2.75575 22.7722 3.02655 23.2515 3.50857C23.7308 3.99059 24 4.64435 24 5.32602V6.61116M17.6111 23.3179H21.4444C22.1222 23.3179 22.7722 23.0471 23.2515 22.5651C23.7308 22.0831 24 21.4293 24 20.7476V19.4625M8.66795 13.0368H8.66667M17.6111 13.0368H24M24 13.0368L21.4444 10.4666M24 13.0368L21.4444 15.6071M2.82083 22.5828L10.4875 24.8961C10.8692 25.0113 11.2723 25.0352 11.6648 24.9658C12.0572 24.8964 12.4281 24.7356 12.7478 24.4964C13.0675 24.2571 13.3271 23.946 13.5059 23.5879C13.6848 23.2297 13.7779 22.8345 13.7778 22.4337V3.63993C13.7779 3.23916 13.6848 2.84392 13.5059 2.48579C13.3271 2.12765 13.0675 1.81654 12.7478 1.5773C12.4281 1.33806 12.0572 1.17732 11.6648 1.10792C11.2723 1.03852 10.8692 1.06239 10.4875 1.17761L2.82083 3.49085C2.29441 3.64978 1.83297 3.97516 1.50496 4.41872C1.17696 4.86228 0.999879 5.40038 1 5.95317V20.1205C0.999879 20.6733 1.17696 21.2114 1.50496 21.6549C1.83297 22.0985 2.29441 22.4239 2.82083 22.5828V22.5828Z" stroke="#373435" stroke-width="2" stroke-linecap="round" stroke-linejoin="round"/>
</svg>
