<svg width="40" height="40" viewBox="0 0 40 40" fill="none" xmlns="http://www.w3.org/2000/svg">
<path d="M6.66667 20C6.66667 20.4421 6.84227 20.866 7.15483 21.1786C7.46739 21.4911 7.89131 21.6667 8.33334 21.6667H20.9833L17.15 25.4834C16.9938 25.6383 16.8698 25.8226 16.7852 26.0257C16.7006 26.2288 16.657 26.4467 16.657 26.6667C16.657 26.8867 16.7006 27.1046 16.7852 27.3077C16.8698 27.5108 16.9938 27.6951 17.15 27.85C17.3049 28.0063 17.4893 28.1302 17.6924 28.2149C17.8955 28.2995 18.1133 28.343 18.3333 28.343C18.5534 28.343 18.7712 28.2995 18.9743 28.2149C19.1774 28.1302 19.3617 28.0063 19.5167 27.85L26.1833 21.1834C26.3351 21.0249 26.454 20.838 26.5333 20.6334C26.7 20.2276 26.7 19.7725 26.5333 19.3667C26.454 19.1621 26.3351 18.9752 26.1833 18.8167L19.5167 12.15C19.3613 11.9946 19.1768 11.8714 18.9738 11.7873C18.7707 11.7032 18.5531 11.6599 18.3333 11.6599C18.1136 11.6599 17.896 11.7032 17.6929 11.7873C17.4899 11.8714 17.3054 11.9946 17.15 12.15C16.9946 12.3054 16.8713 12.4899 16.7872 12.693C16.7031 12.896 16.6599 13.1136 16.6599 13.3334C16.6599 13.5531 16.7031 13.7708 16.7872 13.9738C16.8713 14.1768 16.9946 14.3613 17.15 14.5167L20.9833 18.3334H8.33334C7.89131 18.3334 7.46739 18.509 7.15483 18.8215C6.84227 19.1341 6.66667 19.558 6.66667 20V20ZM28.3333 3.33337H11.6667C10.3406 3.33337 9.06882 3.86016 8.13114 4.79784C7.19346 5.73552 6.66667 7.00729 6.66667 8.33337V13.3334C6.66667 13.7754 6.84227 14.1993 7.15483 14.5119C7.46739 14.8244 7.89131 15 8.33334 15C8.77537 15 9.19929 14.8244 9.51185 14.5119C9.82441 14.1993 10 13.7754 10 13.3334V8.33337C10 7.89135 10.1756 7.46742 10.4882 7.15486C10.8007 6.8423 11.2246 6.66671 11.6667 6.66671H28.3333C28.7754 6.66671 29.1993 6.8423 29.5119 7.15486C29.8244 7.46742 30 7.89135 30 8.33337V31.6667C30 32.1087 29.8244 32.5327 29.5119 32.8452C29.1993 33.1578 28.7754 33.3334 28.3333 33.3334H11.6667C11.2246 33.3334 10.8007 33.1578 10.4882 32.8452C10.1756 32.5327 10 32.1087 10 31.6667V26.6667C10 26.2247 9.82441 25.8008 9.51185 25.4882C9.19929 25.1756 8.77537 25 8.33334 25C7.89131 25 7.46739 25.1756 7.15483 25.4882C6.84227 25.8008 6.66667 26.2247 6.66667 26.6667V31.6667C6.66667 32.9928 7.19346 34.2646 8.13114 35.2022C9.06882 36.1399 10.3406 36.6667 11.6667 36.6667H28.3333C29.6594 36.6667 30.9312 36.1399 31.8689 35.2022C32.8066 34.2646 33.3333 32.9928 33.3333 31.6667V8.33337C33.3333 7.00729 32.8066 5.73552 31.8689 4.79784C30.9312 3.86016 29.6594 3.33337 28.3333 3.33337Z" fill="#333333"/>
</svg>
