<svg width="40" height="40" viewBox="0 0 40 40" fill="none" xmlns="http://www.w3.org/2000/svg">
<g clip-path="url(#clip0_352_2779)">
<path d="M7.16501 37.1251C6.97001 38.2351 8.06501 39.1026 9.03001 38.6076L20.005 32.9676L30.9775 38.6076C31.9425 39.1026 33.0375 38.2351 32.8425 37.1276L30.7675 25.3026L39.5725 16.9126C40.3975 16.1276 39.9725 14.6926 38.8675 14.5376L26.6225 12.7976L21.1625 1.98005C21.0585 1.76077 20.8944 1.57551 20.6893 1.44578C20.4842 1.31606 20.2465 1.24719 20.0038 1.24719C19.7611 1.24719 19.5233 1.31606 19.3182 1.44578C19.1131 1.57551 18.949 1.76077 18.845 1.98005L13.385 12.8001L1.14001 14.5401C0.0375058 14.6951 -0.389994 16.1301 0.432506 16.9151L9.24001 25.3051L7.16501 37.1301V37.1251ZM19.4275 30.2076L10.2125 34.9426L11.9475 25.0501C11.9882 24.8223 11.9722 24.5881 11.9012 24.368C11.8301 24.1479 11.7061 23.9485 11.54 23.7876L4.27501 16.8626L14.405 15.4226C14.6148 15.3909 14.8137 15.3088 14.9848 15.1834C15.156 15.058 15.2941 14.893 15.3875 14.7026L20 5.55755L24.6175 14.7026C24.7109 14.893 24.8491 15.058 25.0202 15.1834C25.1913 15.3088 25.3902 15.3909 25.6 15.4226L35.73 16.8601L28.465 23.7851C28.2985 23.9463 28.1742 24.146 28.1032 24.3666C28.0321 24.5872 28.0164 24.8219 28.0575 25.0501L29.7925 34.9426L20.5775 30.2076C20.3993 30.1157 20.2017 30.0677 20.0013 30.0677C19.8008 30.0677 19.6032 30.1157 19.425 30.2076H19.4275Z" fill="#333333"/>
</g>
<defs>
<clipPath id="clip0_352_2779">
<rect width="40" height="40" fill="white"/>
</clipPath>
</defs>
</svg>
