<svg width="25" height="24" viewBox="0 0 25 24" fill="none" xmlns="http://www.w3.org/2000/svg">
<path d="M12.517 19.4596L12.5158 19.4588C12.507 19.4527 12.4967 19.4495 12.4861 19.4495C12.4756 19.4495 12.4652 19.4527 12.4564 19.4588L12.4553 19.4596L7.27743 22.95L7.27729 22.9501C7.00039 23.136 6.67374 23.2329 6.34072 23.2278C6.0077 23.2226 5.68416 23.1157 5.41307 22.9213C5.142 22.7269 4.93622 22.4543 4.82296 22.1396C4.70971 21.8249 4.69431 21.4831 4.7788 21.1595L4.77929 21.1576L4.77931 21.1576L6.47938 15.1277C6.47943 15.1275 6.47948 15.1273 6.47953 15.1272C6.48243 15.1158 6.48201 15.1038 6.47832 15.0927C6.47457 15.0814 6.46765 15.0715 6.4585 15.0643L12.517 19.4596ZM12.517 19.4596L17.6945 22.9498L12.517 19.4596ZM18.6108 23.2323C18.8637 23.2347 19.1138 23.1785 19.3416 23.0681C19.5696 22.9577 19.7692 22.796 19.9249 22.5955C20.0806 22.3951 20.1883 22.1613 20.2397 21.9123C20.2911 21.6634 20.2848 21.4059 20.2213 21.1597L20.2213 21.1597L20.2207 21.1576L18.5202 15.1262L18.5198 15.1248C18.5166 15.1142 18.5168 15.1028 18.5203 15.0922C18.5238 15.0817 18.5304 15.0726 18.5391 15.0661L18.5392 15.0661L18.5415 15.0643L23.4407 11.1907C23.7149 10.985 23.9181 10.6982 24.0222 10.3707C24.1264 10.0427 24.1259 9.69021 24.0208 9.36252C23.9158 9.03484 23.7113 8.74834 23.4361 8.54327C23.1611 8.33841 22.8293 8.22508 22.487 8.21923C22.4867 8.21923 22.4863 8.21922 22.486 8.21921L16.2434 7.982C16.2324 7.98102 16.2219 7.97699 16.213 7.97029C16.2038 7.96335 16.1967 7.95381 16.1927 7.94277L14.0411 2.05821C13.9257 1.74071 13.716 1.46645 13.4404 1.27264C13.1647 1.07882 12.8365 0.974829 12.5 0.974829C12.1635 0.974829 11.8353 1.07882 11.5596 1.27264C11.284 1.46645 11.0743 1.74071 10.9589 2.05821L8.8073 7.94277C8.80326 7.95381 8.79617 7.96335 8.78696 7.97029C8.77808 7.97699 8.76758 7.98102 8.75665 7.982L2.51296 8.21923C2.1707 8.22508 1.83887 8.3384 1.56391 8.54327C1.28867 8.74834 1.08423 9.03484 0.979151 9.36252C0.874079 9.69021 0.873607 10.0427 0.977803 10.3707C1.08187 10.6982 1.28515 10.985 1.55931 11.1907L6.45846 15.0642L17.6948 22.95C17.9654 23.1336 18.2843 23.2319 18.6108 23.2323ZM18.6108 23.2323C18.6107 23.2323 18.6105 23.2323 18.6104 23.2323L18.6114 23.1323L18.6113 23.2323C18.6111 23.2323 18.611 23.2323 18.6108 23.2323ZM12.412 17.8502L12.4927 17.8527C12.8196 17.8627 13.1359 17.9712 13.4007 18.1639L18.577 21.6533L18.582 21.6566L18.5819 21.6567C18.5909 21.6637 18.6019 21.6674 18.6131 21.6675C18.6243 21.6676 18.6354 21.664 18.6445 21.6572C18.6537 21.6505 18.6605 21.6408 18.6639 21.6296C18.6673 21.6185 18.667 21.6065 18.663 21.5955L18.6606 21.5889L18.6609 21.5888L16.9604 15.5575C16.8713 15.2426 16.8779 14.908 16.9793 14.5969C17.0806 14.2858 17.2721 14.0121 17.5293 13.8112C17.5294 13.8111 17.5294 13.8111 17.5295 13.811L22.4292 9.93708L22.4335 9.93373L22.4336 9.93385C22.4428 9.92733 22.4498 9.91794 22.4534 9.90697C22.4571 9.89601 22.4571 9.88413 22.4535 9.87313C22.45 9.86214 22.4431 9.85269 22.4339 9.8461C22.4247 9.83951 22.4138 9.8361 22.4026 9.83628L22.3972 9.83637L22.3972 9.83622L16.1505 9.59888L16.1504 9.59887C15.8246 9.5861 15.5099 9.476 15.2466 9.2827C14.9834 9.08943 14.7835 8.82177 14.6722 8.51389C14.6722 8.51384 14.6721 8.51379 14.6721 8.51374L12.5206 2.62933L12.5189 2.62468L12.519 2.62464C12.5156 2.61365 12.5088 2.60414 12.4998 2.59744C12.4907 2.59075 12.4799 2.58719 12.4688 2.58719C12.4577 2.58719 12.4468 2.59075 12.4378 2.59744C12.4287 2.60414 12.4219 2.61365 12.4185 2.62464L12.4171 2.62911L12.417 2.62907L10.2862 8.50676L12.412 17.8502ZM12.412 17.8502L12.404 17.8824M12.412 17.8502L12.404 17.8824M12.404 17.8824C12.1081 17.8963 11.821 17.9905 11.5734 18.1557L11.573 18.1559L6.39522 21.6463L6.39483 21.6457L6.3859 21.6534C6.37885 21.6595 6.36997 21.6627 6.36088 21.6627C6.35179 21.6627 6.34292 21.6595 6.33587 21.6534L6.33623 21.653L6.32755 21.647C6.31936 21.6413 6.31313 21.633 6.30991 21.6233C6.30669 21.6136 6.30671 21.6031 6.30996 21.5934L6.31007 21.5934L6.3114 21.5887L8.00495 15.5573L8.00498 15.5572C8.09302 15.2423 8.08595 14.9082 7.98468 14.5973C7.88342 14.2865 7.69253 14.0129 7.43619 13.8113C7.43614 13.8113 7.43609 13.8113 7.43604 13.8112L2.52914 9.93011L2.52923 9.92999L2.5248 9.92687C2.51558 9.92035 2.50858 9.91096 2.50494 9.89999C2.5013 9.88902 2.50125 9.87715 2.50481 9.86615C2.50836 9.85516 2.51529 9.8457 2.52446 9.83911C2.53363 9.83253 2.54458 9.82912 2.55571 9.8293L2.55571 9.82945L2.56113 9.82924L8.80783 9.5919L8.80795 9.59189C9.1338 9.57912 9.44842 9.46902 9.7117 9.27572C9.97495 9.08244 10.1749 8.81476 10.2862 8.50686L12.404 17.8824Z" fill="#373435" stroke="#373435" stroke-width="0.2"/>
</svg>
