<svg width="11" height="14" viewBox="0 0 11 14" fill="none" xmlns="http://www.w3.org/2000/svg">
<path d="M10.1248 13.9205C10.0115 13.9794 9.8844 14.0063 9.75701 13.9984C9.62961 13.9905 9.50676 13.9481 9.40166 13.8757L0.301338 7.57543C0.208348 7.51101 0.132357 7.42501 0.0798712 7.32479C0.0273857 7.22458 -3.05176e-05 7.11314 -3.05176e-05 7.00001C-3.05176e-05 6.88689 0.0273857 6.77544 0.0798712 6.67523C0.132357 6.57502 0.208348 6.48902 0.301338 6.42459L9.40166 0.124368C9.50668 0.0517006 9.62958 0.00914775 9.75705 0.00131728C9.88453 -0.00651319 10.0117 0.0206772 10.1248 0.0799442C10.238 0.139211 10.3327 0.228296 10.3988 0.337554C10.465 0.446811 10.5 0.572077 10.5 0.699789V13.3002C10.5 13.428 10.4651 13.5534 10.3989 13.6627C10.3328 13.772 10.238 13.8612 10.1248 13.9205Z" fill="#FFCC00"/>
</svg>
