<svg width="11" height="14" viewBox="0 0 11 14" fill="none" xmlns="http://www.w3.org/2000/svg">
<path d="M0.375213 13.9205C0.488453 13.9794 0.615596 14.0063 0.742994 13.9984C0.870392 13.9905 0.993235 13.9481 1.09834 13.8757L10.1987 7.57543C10.2917 7.51101 10.3676 7.42501 10.4201 7.32479C10.4726 7.22458 10.5 7.11314 10.5 7.00001C10.5 6.88689 10.4726 6.77544 10.4201 6.67523C10.3676 6.57502 10.2917 6.48902 10.1987 6.42459L1.09834 0.124368C0.993317 0.0517006 0.870417 0.00914775 0.742946 0.00131728C0.615475 -0.00651319 0.488291 0.0206772 0.375164 0.0799442C0.262038 0.139211 0.16728 0.228296 0.101151 0.337554C0.0350228 0.446811 4.31099e-05 0.572077 9.50852e-09 0.699789V13.3002C-2.10479e-05 13.428 0.0349334 13.5534 0.101075 13.6627C0.167216 13.772 0.262021 13.8612 0.375213 13.9205Z" fill="white"/>
</svg>
