<svg width="40" height="40" viewBox="0 0 40 40" fill="none" xmlns="http://www.w3.org/2000/svg">
<path d="M36.6666 20C36.6666 19.0795 35.9204 18.3333 34.9999 18.3333C34.0794 18.3333 33.3333 19.0795 33.3333 20H36.6666ZM19.9999 6.66665C20.9204 6.66665 21.6666 5.92045 21.6666 4.99998C21.6666 4.0795 20.9204 3.33331 19.9999 3.33331V6.66665ZM32.4999 33.3333H7.49992V36.6666H32.4999V33.3333ZM6.66659 32.5V7.49998H3.33325V32.5H6.66659ZM33.3333 20V32.5H36.6666V20H33.3333ZM7.49992 6.66665H19.9999V3.33331H7.49992V6.66665ZM7.49992 33.3333C7.03969 33.3333 6.66659 32.9602 6.66659 32.5H3.33325C3.33325 34.8011 5.19873 36.6666 7.49992 36.6666V33.3333ZM32.4999 36.6666C34.8011 36.6666 36.6666 34.8011 36.6666 32.5H33.3333C33.3333 32.9602 32.9602 33.3333 32.4999 33.3333V36.6666ZM6.66659 7.49998C6.66659 7.03975 7.03968 6.66665 7.49992 6.66665V3.33331C5.19874 3.33331 3.33325 5.19879 3.33325 7.49998H6.66659Z" fill="#161616"/>
<path d="M5 29.1667L13.9109 20.9983C14.5324 20.4286 15.4816 20.4127 16.1217 20.9615L26.6667 30" stroke="#161616" stroke-width="3.33333" stroke-linecap="round" stroke-linejoin="round"/>
<path d="M23.3333 25.8333L27.3112 21.8554C27.8976 21.269 28.8261 21.203 29.4897 21.7007L34.9999 25.8333" stroke="#161616" stroke-width="3.33333" stroke-linecap="round" stroke-linejoin="round"/>
<path d="M30.8333 15V5" stroke="#161616" stroke-width="3.33333" stroke-linecap="round" stroke-linejoin="round"/>
<path d="M26.6665 9.16667L30.8332 5L34.9998 9.16667" stroke="#161616" stroke-width="3.33333" stroke-linecap="round" stroke-linejoin="round"/>
</svg>
