<svg width="40" height="40" viewBox="0 0 40 40" fill="none" xmlns="http://www.w3.org/2000/svg">
<path d="M18.3334 24.9767C18.3334 25.4187 18.509 25.8426 18.8216 26.1552C19.1342 26.4678 19.5581 26.6434 20.0001 26.6434C20.4421 26.6434 20.8661 26.4678 21.1786 26.1552C21.4912 25.8426 21.6668 25.4187 21.6668 24.9767V13.0467L27.0718 18.4517L29.4284 16.095L20.0001 6.66669L10.5718 16.095L12.9284 18.4517L18.3334 13.05V24.9784V24.9767Z" fill="#222222"/>
<path d="M6.66675 23.3334H10.0001V30H30.0001V23.3334H33.3334V30C33.3334 30.8841 32.9822 31.7319 32.3571 32.3571C31.732 32.9822 30.8841 33.3334 30.0001 33.3334H10.0001C9.11603 33.3334 8.26818 32.9822 7.64306 32.3571C7.01794 31.7319 6.66675 30.8841 6.66675 30V23.3334Z" fill="#222222"/>
</svg>
