<svg width="40" height="40" viewBox="0 0 40 40" fill="none" xmlns="http://www.w3.org/2000/svg">
<circle cx="20" cy="20" r="20" fill="#333333"/>
<path d="M23.3682 23.1085C23.9696 23.1085 24.5463 23.3474 24.9715 23.7726C25.3968 24.1979 25.6357 24.7746 25.6357 25.376V26.8896L25.6276 26.9984C25.3152 29.1419 23.3904 30.1719 20.1605 30.1719C16.9428 30.1719 14.9867 29.154 14.5645 27.0357L14.5504 26.8876V25.376C14.5504 24.7746 14.7893 24.1979 15.2145 23.7726C15.6397 23.3474 16.2165 23.1085 16.8178 23.1085H23.3682ZM23.3682 24.6202H16.8178C16.6174 24.6202 16.4251 24.6998 16.2834 24.8415C16.1416 24.9833 16.062 25.1755 16.062 25.376V26.807C16.3442 28.0163 17.624 28.6602 20.1605 28.6602C22.696 28.6602 23.9195 28.0243 24.124 26.8302V25.376C24.124 25.1755 24.0444 24.9833 23.9027 24.8415C23.7609 24.6998 23.5687 24.6202 23.3682 24.6202ZM24.3699 17.061L29.9186 17.062C30.52 17.062 31.0967 17.3009 31.5219 17.7261C31.9472 18.1514 32.186 18.7281 32.186 19.3295V20.8431L32.178 20.9519C31.8656 23.0954 29.9408 24.1253 26.7109 24.1253L26.3935 24.1223C26.0959 23.405 25.5535 22.8165 24.8627 22.4615C25.3817 22.5623 25.9964 22.6137 26.7109 22.6137C29.2464 22.6137 30.4698 21.9778 30.6744 20.7836V19.3295C30.6744 19.129 30.5948 18.9368 30.453 18.795C30.3113 18.6533 30.1191 18.5736 29.9186 18.5736H24.6279C24.6279 18.0436 24.5372 17.5336 24.3699 17.061ZM10.2674 17.062L15.8161 17.061C15.6738 17.4636 15.5893 17.8843 15.5652 18.3106L15.5581 18.5736H10.2674C10.067 18.5736 9.87474 18.6533 9.733 18.795C9.59126 18.9368 9.51163 19.129 9.51163 19.3295V20.7605C9.7938 21.9698 11.0736 22.6137 13.6102 22.6137C14.237 22.6137 14.7832 22.5744 15.2548 22.4978C14.5952 22.8563 14.0784 23.43 13.7905 24.1233L13.6091 24.1253C10.3924 24.1253 8.43636 23.1075 8.01411 20.9892L8 20.8411V19.3295C8 18.7281 8.23889 18.1514 8.66412 17.7261C9.08935 17.3009 9.66608 17.062 10.2674 17.062ZM20.093 15.0465C21.0285 15.0465 21.9256 15.4181 22.5871 16.0796C23.2485 16.741 23.6202 17.6382 23.6202 18.5736C23.6202 19.5091 23.2485 20.4062 22.5871 21.0677C21.9256 21.7292 21.0285 22.1008 20.093 22.1008C19.1576 22.1008 18.2604 21.7292 17.599 21.0677C16.9375 20.4062 16.5659 19.5091 16.5659 18.5736C16.5659 17.6382 16.9375 16.741 17.599 16.0796C18.2604 15.4181 19.1576 15.0465 20.093 15.0465ZM20.093 16.5581C19.5585 16.5581 19.0458 16.7705 18.6678 17.1485C18.2899 17.5264 18.0775 18.0391 18.0775 18.5736C18.0775 19.1082 18.2899 19.6208 18.6678 19.9988C19.0458 20.3768 19.5585 20.5891 20.093 20.5891C20.6276 20.5891 21.1402 20.3768 21.5182 19.9988C21.8962 19.6208 22.1085 19.1082 22.1085 18.5736C22.1085 18.0391 21.8962 17.5264 21.5182 17.1485C21.1402 16.7705 20.6276 16.5581 20.093 16.5581ZM26.6434 9C27.5789 9 28.476 9.37161 29.1375 10.0331C29.7989 10.6945 30.1705 11.5917 30.1705 12.5271C30.1705 13.4626 29.7989 14.3597 29.1375 15.0212C28.476 15.6827 27.5789 16.0543 26.6434 16.0543C25.708 16.0543 24.8108 15.6827 24.1493 15.0212C23.4879 14.3597 23.1163 13.4626 23.1163 12.5271C23.1163 11.5917 23.4879 10.6945 24.1493 10.0331C24.8108 9.37161 25.708 9 26.6434 9ZM13.5426 9C14.4781 9 15.3752 9.37161 16.0367 10.0331C16.6982 10.6945 17.0698 11.5917 17.0698 12.5271C17.0698 13.4626 16.6982 14.3597 16.0367 15.0212C15.3752 15.6827 14.4781 16.0543 13.5426 16.0543C12.6072 16.0543 11.71 15.6827 11.0486 15.0212C10.3871 14.3597 10.0155 13.4626 10.0155 12.5271C10.0155 11.5917 10.3871 10.6945 11.0486 10.0331C11.71 9.37161 12.6072 9 13.5426 9ZM26.6434 10.5116C26.1089 10.5116 25.5962 10.724 25.2182 11.102C24.8403 11.4799 24.6279 11.9926 24.6279 12.5271C24.6279 13.0617 24.8403 13.5743 25.2182 13.9523C25.5962 14.3303 26.1089 14.5426 26.6434 14.5426C27.178 14.5426 27.6906 14.3303 28.0686 13.9523C28.4466 13.5743 28.6589 13.0617 28.6589 12.5271C28.6589 11.9926 28.4466 11.4799 28.0686 11.102C27.6906 10.724 27.178 10.5116 26.6434 10.5116ZM13.5426 10.5116C13.0081 10.5116 12.4954 10.724 12.1175 11.102C11.7395 11.4799 11.5271 11.9926 11.5271 12.5271C11.5271 13.0617 11.7395 13.5743 12.1175 13.9523C12.4954 14.3303 13.0081 14.5426 13.5426 14.5426C14.0772 14.5426 14.5898 14.3303 14.9678 13.9523C15.3458 13.5743 15.5581 13.0617 15.5581 12.5271C15.5581 11.9926 15.3458 11.4799 14.9678 11.102C14.5898 10.724 14.0772 10.5116 13.5426 10.5116Z" fill="#FFCC00"/>
</svg>
