<svg width="40" height="40" viewBox="0 0 40 40" fill="none" xmlns="http://www.w3.org/2000/svg">
<circle cx="20" cy="20" r="20" fill="#FFCC00"/>
<path d="M20 17.5556C20.5618 17.5556 21.118 17.4449 21.637 17.2299C22.156 17.015 22.6276 16.6999 23.0248 16.3026C23.4221 15.9054 23.7372 15.4338 23.9522 14.9148C24.1671 14.3958 24.2778 13.8395 24.2778 13.2778C24.2778 12.716 24.1671 12.1597 23.9522 11.6407C23.7372 11.1217 23.4221 10.6502 23.0248 10.2529C22.6276 9.8557 22.156 9.5406 21.637 9.32563C21.118 9.11065 20.5618 9 20 9C18.8655 9 17.7774 9.45069 16.9752 10.2529C16.1729 11.0552 15.7222 12.1432 15.7222 13.2778C15.7222 14.4123 16.1729 15.5004 16.9752 16.3026C17.7774 17.1049 18.8655 17.5556 20 17.5556ZM9 30.2667V31H31V30.2667C31 27.5289 31 26.16 30.4671 25.1138C29.9984 24.1939 29.2505 23.446 28.3307 22.9773C27.2844 22.4444 25.9156 22.4444 23.1778 22.4444H16.8222C14.0844 22.4444 12.7156 22.4444 11.6693 22.9773C10.7495 23.446 10.0016 24.1939 9.53289 25.1138C9 26.16 9 27.5289 9 30.2667Z" stroke="#333333" stroke-width="2" stroke-linecap="round" stroke-linejoin="round"/>
</svg>
