<svg width="40" height="40" viewBox="0 0 40 40" fill="none" xmlns="http://www.w3.org/2000/svg">
<g clip-path="url(#clip0_352_2775)">
<path d="M35.5556 16.6667H34.4444V10C34.4444 9.70533 34.3274 9.42271 34.119 9.21434C33.9106 9.00597 33.628 8.8889 33.3333 8.8889H6.66667C6.40357 8.89319 6.14749 8.80397 5.94401 8.63713C5.74054 8.47028 5.60288 8.23663 5.55556 7.97779V7.57779C5.60288 7.31895 5.74054 7.0853 5.94401 6.91846C6.14749 6.75161 6.40357 6.66239 6.66667 6.66668H32.8667C33.1614 6.66668 33.444 6.54962 33.6523 6.34124C33.8607 6.13287 33.9778 5.85025 33.9778 5.55557C33.9778 5.26088 33.8607 4.97827 33.6523 4.7699C33.444 4.56152 33.1614 4.44446 32.8667 4.44446H6.66667C5.78261 4.44446 4.93477 4.79565 4.30964 5.42077C3.68452 6.04589 3.33333 6.89374 3.33333 7.77779C3.32553 7.91101 3.32553 8.04457 3.33333 8.17779V31.0333C3.33769 31.6316 3.45985 32.2231 3.69283 32.7742C3.9258 33.3252 4.26504 33.825 4.69116 34.2449C5.11728 34.6648 5.62194 34.9967 6.17633 35.2216C6.73072 35.4465 7.32397 35.56 7.92222 35.5556H33.3333C33.628 35.5556 33.9106 35.4385 34.119 35.2301C34.3274 35.0218 34.4444 34.7391 34.4444 34.4445V27.7778H35.5556C35.8502 27.7778 36.1329 27.6607 36.3412 27.4524C36.5496 27.244 36.6667 26.9614 36.6667 26.6667V17.7778C36.6667 17.4831 36.5496 17.2005 36.3412 16.9921C36.1329 16.7837 35.8502 16.6667 35.5556 16.6667ZM32.2222 33.3333H7.92222C7.30422 33.3393 6.70887 33.101 6.26566 32.6703C5.82245 32.2396 5.56724 31.6513 5.55556 31.0333V10.9778C5.91622 11.0823 6.29151 11.1273 6.66667 11.1111H32.2222V16.6667H24.4444C22.971 16.6667 21.5579 17.252 20.5161 18.2939C19.4742 19.3357 18.8889 20.7488 18.8889 22.2222C18.8889 23.6957 19.4742 25.1087 20.5161 26.1506C21.5579 27.1925 22.971 27.7778 24.4444 27.7778H32.2222V33.3333ZM34.4444 25.5556H24.4444C23.5604 25.5556 22.7125 25.2044 22.0874 24.5793C21.4623 23.9541 21.1111 23.1063 21.1111 22.2222C21.1111 21.3382 21.4623 20.4903 22.0874 19.8652C22.7125 19.2401 23.5604 18.8889 24.4444 18.8889H34.4444V25.5556Z" fill="#333333"/>
<path d="M25.5667 23.8889C26.4871 23.8889 27.2333 23.1427 27.2333 22.2222C27.2333 21.3017 26.4871 20.5555 25.5667 20.5555C24.6462 20.5555 23.9 21.3017 23.9 22.2222C23.9 23.1427 24.6462 23.8889 25.5667 23.8889Z" fill="#333333"/>
</g>
<defs>
<clipPath id="clip0_352_2775">
<rect width="40" height="40" fill="white"/>
</clipPath>
</defs>
</svg>
