<svg width="23" height="26" viewBox="0 0 23 26" fill="none" xmlns="http://www.w3.org/2000/svg">
<path d="M11.4118 0.793449C11.5701 0.594305 11.766 0.428706 11.9883 0.306237C12.2106 0.183768 12.4549 0.106862 12.7069 0.0799699C12.959 0.0530778 13.2138 0.076734 13.4567 0.149569C13.6996 0.222405 13.9257 0.342972 14.122 0.504293L20.3742 5.63969C20.718 5.92205 20.9537 6.31567 21.0411 6.75338C21.1285 7.19108 21.0621 7.64572 20.8533 8.03968C20.3067 7.87166 19.7382 7.78655 19.1667 7.78716H18.5917L19.1628 7.13174L15.87 4.42717L13.1541 7.78908H10.6835L14.3846 3.20886L12.9087 1.99634L8.31258 7.78716H5.85925L11.4118 0.793449ZM16.2917 17.4257C16.0375 17.4257 15.7937 17.5272 15.614 17.708C15.4343 17.8887 15.3333 18.1339 15.3333 18.3895C15.3333 18.6452 15.4343 18.8903 15.614 19.0711C15.7937 19.2518 16.0375 19.3534 16.2917 19.3534H18.2083C18.4625 19.3534 18.7063 19.2518 18.886 19.0711C19.0657 18.8903 19.1667 18.6452 19.1667 18.3895C19.1667 18.1339 19.0657 17.8887 18.886 17.708C18.7063 17.5272 18.4625 17.4257 18.2083 17.4257H16.2917ZM1.91667 8.75101C1.91667 8.49538 2.01763 8.25022 2.19736 8.06946C2.37708 7.8887 2.62083 7.78716 2.875 7.78716H3.9445L5.46825 5.85945H2.875C2.1125 5.85945 1.38124 6.1641 0.842068 6.70637C0.302901 7.24864 0 7.98412 0 8.75101V20.3172C0 21.5954 0.504835 22.8212 1.40345 23.725C2.30206 24.6287 3.52084 25.1365 4.79167 25.1365H19.1667C20.1833 25.1365 21.1584 24.7303 21.8772 24.0073C22.5961 23.2842 23 22.3036 23 21.2811V13.5703C23 12.5477 22.5961 11.5671 21.8772 10.8441C21.1584 10.1211 20.1833 9.71486 19.1667 9.71486H2.875C2.62083 9.71486 2.37708 9.61331 2.19736 9.43255C2.01763 9.2518 1.91667 9.00664 1.91667 8.75101ZM1.91667 20.3172V11.4787C2.21567 11.5847 2.53958 11.6426 2.875 11.6426H19.1667C19.675 11.6426 20.1625 11.8457 20.522 12.2072C20.8814 12.5687 21.0833 13.059 21.0833 13.5703V21.2811C21.0833 21.7923 20.8814 22.2827 20.522 22.6442C20.1625 23.0057 19.675 23.2088 19.1667 23.2088H4.79167C4.02917 23.2088 3.2979 22.9041 2.75873 22.3619C2.21957 21.8196 1.91667 21.0841 1.91667 20.3172Z" fill="#373435"/>
<path d="M11.4118 0.793449C11.5701 0.594305 11.766 0.428706 11.9883 0.306237C12.2106 0.183768 12.4549 0.106862 12.7069 0.0799699C12.959 0.0530778 13.2138 0.076734 13.4567 0.149569C13.6996 0.222405 13.9257 0.342972 14.122 0.504293L20.3742 5.63969C20.718 5.92205 20.9537 6.31567 21.0411 6.75338C21.1285 7.19108 21.0621 7.64572 20.8533 8.03968C20.3067 7.87166 19.7382 7.78655 19.1667 7.78716H18.5917L19.1628 7.13174L15.87 4.42717L13.1541 7.78908H10.6835L14.3846 3.20886L12.9087 1.99634L8.31258 7.78716H5.85925L11.4118 0.793449ZM16.2917 17.4257C16.0375 17.4257 15.7937 17.5272 15.614 17.708C15.4343 17.8887 15.3333 18.1339 15.3333 18.3895C15.3333 18.6452 15.4343 18.8903 15.614 19.0711C15.7937 19.2518 16.0375 19.3534 16.2917 19.3534H18.2083C18.4625 19.3534 18.7063 19.2518 18.886 19.0711C19.0657 18.8903 19.1667 18.6452 19.1667 18.3895C19.1667 18.1339 19.0657 17.8887 18.886 17.708C18.7063 17.5272 18.4625 17.4257 18.2083 17.4257H16.2917ZM1.91667 8.75101C1.91667 8.49538 2.01763 8.25022 2.19736 8.06946C2.37708 7.8887 2.62083 7.78716 2.875 7.78716H3.9445L5.46825 5.85945H2.875C2.1125 5.85945 1.38124 6.1641 0.842068 6.70637C0.302901 7.24864 0 7.98412 0 8.75101V20.3172C0 21.5954 0.504835 22.8212 1.40345 23.725C2.30206 24.6287 3.52084 25.1365 4.79167 25.1365H19.1667C20.1833 25.1365 21.1584 24.7303 21.8772 24.0073C22.5961 23.2842 23 22.3036 23 21.2811V13.5703C23 12.5477 22.5961 11.5671 21.8772 10.8441C21.1584 10.1211 20.1833 9.71486 19.1667 9.71486H2.875C2.62083 9.71486 2.37708 9.61331 2.19736 9.43255C2.01763 9.2518 1.91667 9.00664 1.91667 8.75101ZM1.91667 20.3172V11.4787C2.21567 11.5847 2.53958 11.6426 2.875 11.6426H19.1667C19.675 11.6426 20.1625 11.8457 20.522 12.2072C20.8814 12.5687 21.0833 13.059 21.0833 13.5703V21.2811C21.0833 21.7923 20.8814 22.2827 20.522 22.6442C20.1625 23.0057 19.675 23.2088 19.1667 23.2088H4.79167C4.02917 23.2088 3.2979 22.9041 2.75873 22.3619C2.21957 21.8196 1.91667 21.0841 1.91667 20.3172Z" stroke="black"/>
</svg>
