<svg width="40" height="40" viewBox="0 0 40 40" fill="none" xmlns="http://www.w3.org/2000/svg">
<path d="M5 5V9.57L1.25 14.57V15C1.25 17.0562 2.94375 18.75 5 18.75V35H35V18.75C37.0562 18.75 38.75 17.0562 38.75 15V14.57L35 9.57V5H5ZM7.5 7.5H32.5V8.75H7.5V7.5ZM6.875 11.25H33.125L36.1325 15.2737C35.9963 15.815 35.5863 16.25 35 16.25C34.3062 16.25 33.75 15.6938 33.75 15H31.25C31.25 15.6938 30.6938 16.25 30 16.25C29.3062 16.25 28.75 15.6938 28.75 15H26.25C26.25 15.6938 25.6938 16.25 25 16.25C24.3062 16.25 23.75 15.6938 23.75 15H21.25C21.25 15.6938 20.6938 16.25 20 16.25C19.3062 16.25 18.75 15.6938 18.75 15H16.25C16.25 15.6938 15.6938 16.25 15 16.25C14.3062 16.25 13.75 15.6938 13.75 15H11.25C11.25 15.6938 10.6938 16.25 10 16.25C9.30625 16.25 8.75 15.6938 8.75 15H6.25C6.25 15.6938 5.69375 16.25 5 16.25C4.41375 16.25 4.00375 15.815 3.8675 15.2737L6.875 11.25ZM7.5 17.7737C8.16375 18.3737 9.0425 18.75 10 18.75C10.9575 18.75 11.8362 18.3737 12.5 17.7737C13.1638 18.3737 14.0425 18.75 15 18.75C15.9575 18.75 16.8362 18.3737 17.5 17.7737C18.1638 18.3737 19.0425 18.75 20 18.75C20.9575 18.75 21.8362 18.3737 22.5 17.7737C23.1638 18.3737 24.0425 18.75 25 18.75C25.9575 18.75 26.8362 18.3737 27.5 17.7737C28.1638 18.3737 29.0425 18.75 30 18.75C30.9575 18.75 31.8362 18.3737 32.5 17.7737V26.25H7.5V17.7737ZM7.5 28.75H32.5V32.5H7.5V28.75Z" fill="white"/>
</svg>
