<svg width="110" height="110" viewBox="0 0 110 110" fill="none" xmlns="http://www.w3.org/2000/svg">
<g filter="url(#filter0_d_718_2)">
<path fill-rule="evenodd" clip-rule="evenodd" d="M48.125 17.1875C44.0622 17.1875 40.0392 17.9877 36.2857 19.5425C32.5322 21.0973 29.1217 23.3761 26.2489 26.2489C23.3761 29.1217 21.0972 32.5322 19.5425 36.2857C17.9877 40.0393 17.1875 44.0622 17.1875 48.125C17.1875 52.1878 17.9877 56.2108 19.5425 59.9643C21.0972 63.7178 23.3761 67.1283 26.2489 70.0011C29.1217 72.8739 32.5322 75.1528 36.2857 76.7075C40.0392 78.2623 44.0622 79.0625 48.125 79.0625C56.3301 79.0625 64.1992 75.803 70.0011 70.0011C75.803 64.1992 79.0625 56.3302 79.0625 48.125C79.0625 39.9199 75.803 32.0508 70.0011 26.2489C64.1992 20.447 56.3301 17.1875 48.125 17.1875V17.1875ZM10.3125 48.125C10.3133 42.0525 11.7766 36.0696 14.5786 30.6822C17.3806 25.2949 21.4389 20.6616 26.4102 17.1743C31.3816 13.6871 37.1196 11.4484 43.1391 10.6477C49.1585 9.84696 55.2823 10.5078 60.9924 12.5742C66.7024 14.6406 71.8308 18.0519 75.9437 22.5194C80.0566 26.9869 83.0331 32.3793 84.6213 38.2404C86.2095 44.1015 86.3628 50.2589 85.0681 56.1918C83.7734 62.1246 81.0689 67.6584 77.1833 72.325L98.6792 93.8208C99.0169 94.1355 99.2878 94.515 99.4757 94.9367C99.6635 95.3584 99.7646 95.8136 99.7727 96.2751C99.7808 96.7367 99.6959 97.1951 99.5231 97.6232C99.3502 98.0512 99.0928 98.44 98.7664 98.7664C98.44 99.0929 98.0512 99.3502 97.6231 99.5231C97.1951 99.696 96.7367 99.7809 96.2751 99.7727C95.8135 99.7646 95.3584 99.6636 94.9367 99.4757C94.515 99.2878 94.1355 99.0169 93.8208 98.6792L72.325 77.1834C66.8031 81.7827 60.0849 84.7132 52.9573 85.6316C45.8298 86.55 38.5881 85.4183 32.0806 82.369C25.5732 79.3196 20.0694 74.479 16.2141 68.4142C12.3589 62.3494 10.3117 55.3115 10.3125 48.125V48.125Z" fill="white"/>
</g>
<defs>
<filter id="filter0_d_718_2" x="-4" y="0" width="118" height="118" filterUnits="userSpaceOnUse" color-interpolation-filters="sRGB">
<feFlood flood-opacity="0" result="BackgroundImageFix"/>
<feColorMatrix in="SourceAlpha" type="matrix" values="0 0 0 0 0 0 0 0 0 0 0 0 0 0 0 0 0 0 127 0" result="hardAlpha"/>
<feOffset dy="4"/>
<feGaussianBlur stdDeviation="2"/>
<feComposite in2="hardAlpha" operator="out"/>
<feColorMatrix type="matrix" values="0 0 0 0 0 0 0 0 0 0 0 0 0 0 0 0 0 0 0.25 0"/>
<feBlend mode="normal" in2="BackgroundImageFix" result="effect1_dropShadow_718_2"/>
<feBlend mode="normal" in="SourceGraphic" in2="effect1_dropShadow_718_2" result="shape"/>
</filter>
</defs>
</svg>
