<svg width="40" height="40" viewBox="0 0 40 40" fill="none" xmlns="http://www.w3.org/2000/svg">
<path d="M31.84 9.92496C32.0106 9.75087 32.2142 9.61258 32.4389 9.51816C32.6636 9.42375 32.9049 9.37512 33.1487 9.37512C33.3925 9.37512 33.6338 9.42375 33.8585 9.51816C34.0832 9.61258 34.2868 9.75087 34.4574 9.92496C35.1724 10.6475 35.1825 11.815 34.4825 12.55L19.7 30.025C19.5321 30.2093 19.3284 30.3574 19.1014 30.4603C18.8743 30.5631 18.6287 30.6186 18.3795 30.6233C18.1302 30.628 17.8827 30.5818 17.6519 30.4875C17.4212 30.3932 17.2121 30.2528 17.0375 30.075L8.04245 20.96C7.69554 20.6062 7.50122 20.1304 7.50122 19.635C7.50122 19.1395 7.69554 18.6637 8.04245 18.31C8.21307 18.1359 8.4167 17.9976 8.64142 17.9032C8.86615 17.8088 9.10745 17.7601 9.3512 17.7601C9.59495 17.7601 9.83625 17.8088 10.061 17.9032C10.2857 17.9976 10.4893 18.1359 10.66 18.31L18.2899 26.0425L31.7899 9.97996C31.8055 9.96064 31.8222 9.94227 31.84 9.92496Z" fill="white"/>
</svg>
