<svg width="40" height="40" viewBox="0 0 40 40" fill="none" xmlns="http://www.w3.org/2000/svg">
<g clip-path="url(#clip0_704_11)">
<path d="M37.3222 6.87779C37.1858 6.76689 37.0251 6.68992 36.8531 6.65322C36.6812 6.61652 36.5031 6.62114 36.3333 6.66668L25.6555 10L14.9555 4.56668C14.8093 4.49899 14.65 4.46393 14.4888 4.46393C14.3277 4.46393 14.1684 4.49899 14.0222 4.56668L2.91107 9.11112C2.70641 9.1952 2.53151 9.33846 2.40878 9.52256C2.28605 9.70666 2.22107 9.9232 2.22218 10.1445V32.9C2.22309 33.082 2.26868 33.261 2.35495 33.4212C2.44122 33.5814 2.56553 33.718 2.71695 33.819C2.86837 33.9199 3.04226 33.9821 3.22335 34.0001C3.40444 34.0181 3.58718 33.9914 3.75552 33.9222L14.4444 29.5333L25.1 35C25.2581 35.081 25.4334 35.123 25.6111 35.1222C25.7216 35.139 25.8339 35.139 25.9444 35.1222L37.0555 31.6556C37.2896 31.5822 37.4929 31.4334 37.6336 31.2325C37.7743 31.0315 37.8445 30.7895 37.8333 30.5445V7.77779C37.8275 7.59756 37.778 7.42144 37.6889 7.26464C37.5999 7.10784 37.474 6.97507 37.3222 6.87779V6.87779ZM35.5555 29.7222L26.3111 32.6111V30.0667H24.5333V32.2889L15.2 27.5V25.6222H13.4222V27.5333L4.4444 31.2333V10.8778L13.4222 7.17779V9.7889H15.2V7.1889L24.5333 11.9667V14.3H26.3111V12.2222L35.5555 9.2889V29.7222Z" fill="white"/>
<path d="M24.5334 16.7333H26.3112V20.9667H24.5334V16.7333Z" fill="white"/>
<path d="M24.5334 23.4H26.3112V27.6333H24.5334V23.4Z" fill="white"/>
<path d="M13.4221 12.2889H15.1999V16.5222H13.4221V12.2889Z" fill="white"/>
<path d="M13.4221 19.0333H15.1999V23.2H13.4221V19.0333Z" fill="white"/>
</g>
<defs>
<clipPath id="clip0_704_11">
<rect width="40" height="40" fill="white"/>
</clipPath>
</defs>
</svg>
