<svg width="40" height="40" viewBox="0 0 40 40" fill="none" xmlns="http://www.w3.org/2000/svg">
<g clip-path="url(#clip0_703_4)">
<path d="M20 7.46667C18.7408 7.46667 17.5098 7.84007 16.4628 8.53965C15.4158 9.23923 14.5998 10.2336 14.1179 11.3969C13.6361 12.5603 13.51 13.8404 13.7556 15.0754C14.0013 16.3104 14.6077 17.4449 15.4981 18.3353C16.3885 19.2257 17.5229 19.832 18.7579 20.0777C19.9929 20.3233 21.273 20.1973 22.4364 19.7154C23.5997 19.2335 24.5941 18.4175 25.2937 17.3705C25.9932 16.3235 26.3666 15.0925 26.3666 13.8333C26.3666 12.1448 25.6959 10.5254 24.5019 9.33143C23.3079 8.13745 21.6885 7.46667 20 7.46667V7.46667ZM20 17.9778C19.1803 17.9778 18.379 17.7347 17.6974 17.2793C17.0159 16.8239 16.4847 16.1767 16.171 15.4194C15.8573 14.6621 15.7752 13.8287 15.9352 13.0248C16.0951 12.2209 16.4898 11.4824 17.0694 10.9028C17.649 10.3232 18.3875 9.92845 19.1914 9.76853C19.9954 9.60862 20.8287 9.69069 21.586 10.0044C22.3433 10.3181 22.9906 10.8493 23.4459 11.5308C23.9013 12.2124 24.1444 13.0136 24.1444 13.8333C24.1415 14.9306 23.7035 15.9819 22.9266 16.7567C22.1497 17.5316 21.0972 17.9667 20 17.9667V17.9778Z" fill="white"/>
<path d="M20 2.22217C16.5391 2.22506 13.22 3.59737 10.7676 6.03939C8.31517 8.4814 6.92874 11.7947 6.91113 15.2555C6.91113 20.4444 9.82224 24.7888 11.9556 27.9555L12.3445 28.5333C14.467 31.6095 16.744 34.5763 19.1667 37.4222L20.0111 38.4111L20.8556 37.4222C23.278 34.576 25.5549 31.6093 27.6778 28.5333L28.0667 27.9444C30.1889 24.7777 33.1 20.4444 33.1 15.2555C33.0824 11.7927 31.6945 8.4778 29.2396 6.03547C26.7848 3.59314 23.4628 2.22212 20 2.22217V2.22217ZM26.2111 26.6666L25.8111 27.2555C23.9 30.1222 21.3667 33.3333 20 34.9222C18.6889 33.3333 16.1 30.1222 14.1889 27.2555L13.8 26.6666C11.8334 23.7333 9.13336 19.7222 9.13336 15.2111C9.13336 13.784 9.41443 12.371 9.96053 11.0526C10.5066 9.73416 11.3071 8.53623 12.3161 7.52716C13.3252 6.5181 14.5231 5.71767 15.8415 5.17157C17.1599 4.62546 18.573 4.34439 20 4.34439C21.4271 4.34439 22.8401 4.62546 24.1585 5.17157C25.4769 5.71767 26.6749 6.5181 27.6839 7.52716C28.693 8.53623 29.4934 9.73416 30.0395 11.0526C30.5856 12.371 30.8667 13.784 30.8667 15.2111C30.8667 19.7666 28.1778 23.7777 26.2111 26.6666V26.6666Z" fill="white"/>
</g>
<defs>
<clipPath id="clip0_703_4">
<rect width="40" height="40" fill="white"/>
</clipPath>
</defs>
</svg>
